<?xml version="1.0" standalone="no"?>
<!DOCTYPE svg PUBLIC "-//W3C//DTD SVG 20010904//EN"
 "http://www.w3.org/TR/2001/REC-SVG-20010904/DTD/svg10.dtd">
<svg version="1.0" xmlns="http://www.w3.org/2000/svg"
 width="100.000000pt" height="100.000000pt" viewBox="0 0 100.000000 100.000000"
 preserveAspectRatio="xMidYMid meet">
<metadata>
Created by potrace 1.14, written by Peter Selinger 2001-2017
</metadata>
<g transform="translate(0.000000,100.000000) scale(0.100000,-0.100000)"
fill="#000000" stroke="none">
<path d="M280 932 c-16 -2 -64 -42 -131 -109 l-106 -105 -1 -301 0 -302 26
-24 26 -24 409 0 c295 0 411 3 419 11 7 7 13 51 13 109 1 54 7 111 13 126 20
47 14 90 -14 125 -22 26 -34 32 -68 32 -36 1 -45 6 -71 40 -22 28 -38 39 -57
40 -33 0 -30 -13 -33 170 -3 186 -2 180 -20 180 -8 0 -15 7 -15 15 0 9 -10 15
-27 16 -95 3 -342 3 -363 1z"/>
</g>
</svg>
